<svg width="144" height="149" viewBox="0 0 144 149" fill="none" xmlns="http://www.w3.org/2000/svg">
<ellipse cx="72" cy="70" rx="72" ry="70" fill="#F9E3E3"/>
<path d="M39.472 98.16C38.256 93.296 37.328 88.4 36.688 83.472C36.048 78.48 35.472 70.288 34.96 58.896C34.96 58.128 35.216 57.456 35.728 56.88C36.304 56.304 36.944 56.016 37.648 56.016H38.512C38.832 58.128 39.056 61.52 39.184 66.192C39.184 66.704 39.248 68.432 39.376 71.376C39.504 74.256 39.824 76.976 40.336 79.536C47.76 78.832 53.68 77.392 58.096 75.216C62.576 73.04 64.816 69.936 64.816 65.904C64.816 60.848 62.576 56.72 58.096 53.52C53.616 50.32 46.864 48.72 37.84 48.72C34.064 48.72 30.864 49.424 28.24 50.832C27.792 51.024 27.472 51.44 27.28 52.08C27.088 52.656 26.928 53.488 26.8 54.576C26.672 55.728 26.512 56.592 26.32 57.168C26.128 57.744 25.776 58.032 25.264 58.032C24.688 58.032 24.304 57.616 24.112 56.784C23.984 55.888 23.92 53.872 23.92 50.736C23.92 48.944 25.136 47.536 27.568 46.512C30 45.488 33.136 44.976 36.976 44.976C48.176 44.976 56.496 46.736 61.936 50.256C67.376 53.776 70.096 59.184 70.096 66.48C70.096 70.384 68.528 73.648 65.392 76.272C62.256 78.896 58.448 80.848 53.968 82.128C49.488 83.344 45.2 83.952 41.104 83.952C41.232 84.72 41.36 85.424 41.488 86.064C41.616 86.704 41.712 87.248 41.776 87.696C42.672 92.048 43.12 95.408 43.12 97.776C43.12 99.184 42.928 100.304 42.544 101.136C42.224 101.968 41.488 102.256 40.336 102L39.472 98.16ZM96.1653 100.848C95.1413 100.72 94.1813 100.656 93.2853 100.656C92.4533 100.592 91.8773 100.56 91.5573 100.56C91.3013 100.496 91.1733 100.368 91.1733 100.176C90.7253 98.128 90.4053 96.336 90.2133 94.8C90.0213 93.2 89.8933 91.728 89.8293 90.384C89.7653 88.464 89.6053 86.576 89.3493 84.72C89.1573 82.8 88.7093 80.272 88.0053 77.136C84.4213 77.712 82.0213 78 80.8053 78C79.5253 78 78.5653 77.776 77.9253 77.328C77.2853 76.816 76.9653 76.016 76.9653 74.928C76.9653 74.288 77.3173 73.968 78.0213 73.968L80.9013 73.68C81.3493 73.616 83.3973 73.36 87.0453 72.912C86.9173 71.056 86.6613 67.248 86.2773 61.488C86.0853 56.88 85.7973 53.2 85.4133 50.448L73.4133 51.504C72.5173 52.08 71.8132 52.368 71.3012 52.368C70.5332 51.792 70.0532 51.056 69.8612 50.16C71.3972 48.496 75.0773 47.12 80.9013 46.032C86.7893 44.944 93.1573 44.4 100.005 44.4C108.581 44.4 115.941 45.328 122.085 47.184C128.229 48.976 131.557 51.76 132.069 55.536C130.085 55.536 128.165 55.312 126.309 54.864C124.453 54.416 122.117 53.744 119.301 52.848C115.717 51.632 112.421 50.704 109.413 50.064C106.469 49.424 103.141 49.104 99.4293 49.104C97.0613 49.104 94.4693 49.296 91.6533 49.68C91.6533 55.632 91.8133 63.152 92.1333 72.24L95.4933 71.952C105.733 71.12 111.717 70.704 113.445 70.704C114.277 70.704 114.853 70.768 115.173 70.896C115.493 70.96 115.749 71.088 115.941 71.28C116.005 73.2 114.181 74.576 110.469 75.408C106.757 76.176 100.869 76.72 92.8053 77.04C93.1253 80.176 93.7333 84.272 94.6293 89.328C95.4613 94.064 95.9733 97.904 96.1653 100.848Z" fill="#E01717"/>
</svg>
